<svg width="400" height="400" version="1.1" viewBox="0 0 106 106" xmlns="http://www.w3.org/2000/svg" xmlns:xlink="http://www.w3.org/1999/xlink">
 <title>SpinnerBasic</title>
 <defs>
  <clipPath id="clipPath3">
   <ellipse cx="53" cy="53" rx="38" ry="38" d="M 91.281246,52.916664 A 38.364582,38.364578 0 0 1 52.916664,91.281242 38.364582,38.364578 0 0 1 14.552082,52.916664 38.364582,38.364578 0 0 1 52.916664,14.552086 38.364582,38.364578 0 0 1 91.281246,52.916664 Z" display="none" fill="#fff"/>
   <path class="powerclip" d="m-4-4h113v113h-113zm95 57a38 38 0 0 0-38-38 38 38 0 0 0-38 38 38 38 0 0 0 38 38 38 38 0 0 0 38-38z" fill="#fff"/>
  </clipPath>
  <clipPath id="clipPath4">
   <path class="powerclip" d="m-2-2h111v111h-111zm95 55a40 40 0 0 0-40-40 40 40 0 0 0-40 40 40 40 0 0 0 40 40 40 40 0 0 0 40-40z" fill="#0f0" stroke-width="0"/>
  </clipPath>
  <linearGradient id="linearGradient25" x1="3" x2="103" y1="53" y2="53" gradientUnits="userSpaceOnUse">
   <stop stop-color="#999" offset=".4"/>
   <stop stop-color="#060606" stop-opacity="0" offset="1"/>
  </linearGradient>
 </defs>
 <path d="m105 53a52 52 0 0 1-52 52 52 52 0 0 1-52-52 52 52 0 0 1 52-52 52 52 0 0 1 52 52z" clip-path="url(#clipPath3)" fill="#e6e6e6"/>
 <path d="m53 3a5 5 0 0 0-0.8 0.05 50 50 0 0 0-5e-4 0 50 50 0 0 0-50 50 50 50 0 0 0 50 50 50 50 0 0 0 50-50 5 5 0 0 0-5-5 5 5 0 0 0-5 5h-40v-40a5 5 0 0 0 5-5 5 5 0 0 0-5-5z" clip-path="url(#clipPath4)" fill="url(#linearGradient25)" stroke-width="0"/>
</svg>
